#!OML:ASF X:\für Bonn\!DataBase\2005_08_12_Daniel\c3d\Daniel.ASF
:FULLY-SPECIFIED
:DEGREES
138
root 1.56955 16.752 -19.1918 199.108 162.567 -170.469
lowerback 82.8418 -9.53539 12.3515
upperback 7.80593 0.91418 -3.48695
thorax -10.5701 1.16583 -9.21783
lowerneck 2.73253 -7.06158 -2.66455
upperneck 4.64106 -9.22489 -2.0116
head 0.999532 -4.57888 -0.193367
rclavicle 1.08139e-013 -3.29983e-014
rhumerus 66.5347 -36.988 -100.244
rradius 5.36037
rwrist 37.8084
rhand -32.6355 7.82852
rfingers 7.12502
rthumb -5.86235 -22.0704
lclavicle 1.08139e-013 -3.29983e-014
lhumerus -29.4118 -12.4165 92.8806
lradius 58.8269
lwrist 2.02215
lhand -12.7793 -9.2693
lfingers 7.12502
lthumb 13.3059 20.2859
rfemur -53.1362 -7.23877 4.12692
rtibia 54.5727
rfoot -17.3552 -9.0616
rtoes -17.1172
lfemur -54.5524 -11.1619 -23.1764
ltibia 48.7079
lfoot -9.97581 -10.2926
ltoes -9.53923
139
root 1.55103 16.7246 -19.1736 199.373 162.408 -170.291
lowerback 83.1662 -9.60924 12.3832
upperback 7.71205 0.937059 -3.50007
thorax -10.6267 1.17691 -9.25033
lowerneck 2.68548 -7.07291 -2.74493
upperneck 4.70354 -9.23705 -1.97263
head 1.03275 -4.58597 -0.172892
rclavicle -7.63333e-014 2.38542e-014
rhumerus 66.8443 -37.1242 -100.248
rradius 5.38932
rwrist 37.4938
rhand -33.2157 7.55923
rfingers 7.12502
rthumb -6.42248 -22.3234
lclavicle -7.63333e-014 2.38542e-014
lhumerus -29.6373 -12.8299 93.0034
lradius 59.1767
lwrist 2.35622
lhand -12.5899 -9.51157
lfingers 7.12502
lthumb 13.4885 20.0316
rfemur -53.6261 -7.49847 4.09835
rtibia 55.1923
rfoot -17.6464 -8.98964
rtoes -17.1306
lfemur -55.0068 -11.0636 -23.3168
ltibia 49.1324
lfoot -10.0907 -10.6314
ltoes -9.35509
140
root 1.53366 16.7 -19.1541 199.616 162.263 -170.162
lowerback 83.4417 -9.63739 12.3961
upperback 7.66268 0.982962 -3.49155
thorax -10.6351 1.19935 -9.25899
lowerneck 2.56456 -7.0898 -2.74058
upperneck 4.77331 -9.25054 -2.04924
head 1.07065 -4.5941 -0.202914
rclavicle -1.01778e-013 -6.95746e-014
rhumerus 67.2088 -37.1872 -100.288
rradius 5.40214
rwrist 37.1148
rhand -33.7975 7.23833
rfingers 7.12502
rthumb -6.98412 -22.6265
lclavicle -1.01778e-013 -6.95746e-014
lhumerus -29.7721 -13.189 93.1209
lradius 59.4927
lwrist 2.74035
lhand -12.3734 -9.79508
lfingers 7.12502
lthumb 13.6972 19.7342
rfemur -54.0917 -7.69838 4.10056
rtibia 55.7881
rfoot -17.9214 -8.94763
rtoes -17.2049
lfemur -55.4349 -10.9492 -23.4225
ltibia 49.5392
lfoot -10.2289 -10.9566
ltoes -9.31326
141
root 1.51628 16.6748 -19.1354 199.851 162.09 -170.022
lowerback 83.71 -9.68243 12.4371
upperback 7.58807 1.03216 -3.49872
thorax -10.6717 1.22133 -9.2994
lowerneck 2.5329 -7.11327 -2.67712
upperneck 4.82252 -9.27601 -2.07444
head 1.08708 -4.60575 -0.222755
rclavicle 4.77083e-014 -2.22639e-014
rhumerus 67.4814 -37.3058 -100.328
rradius 5.45565
rwrist 36.6402
rhand -34.322 6.91937
rfingers 7.12502
rthumb -7.49041 -22.928
lclavicle 4.77083e-014 -2.22639e-014
lhumerus -29.9569 -13.5663 93.2374
lradius 59.8216
lwrist 3.15536
lhand -12.1667 -10.0456
lfingers 7.12502
lthumb 13.8964 19.4701
rfemur -54.5176 -7.91789 4.0906
rtibia 56.3594
rfoot -18.2192 -8.86821
rtoes -17.2562
lfemur -55.834 -10.8363 -23.5466
ltibia 49.9264
lfoot -10.3557 -11.3115
ltoes -9.26423
142
root 1.4998 16.6511 -19.1174 200.073 161.948 -169.895
lowerback 83.9309 -9.66211 12.417
upperback 7.56228 1.09227 -3.47138
thorax -10.6616 1.24912 -9.28004
lowerneck 2.46981 -7.12334 -2.62315
upperneck 4.85766 -9.28312 -2.1378
head 1.10281 -4.60919 -0.253341
rclavicle -4.13472e-014 7.95139e-016
rhumerus 67.7885 -37.3131 -100.385
rradius 5.5126
rwrist 36.0904
rhand -34.7853 6.57779
rfingers 7.12502
rthumb -7.93756 -23.2532
lclavicle -4.13472e-014 7.95139e-016
lhumerus -30.073 -13.878 93.345
lradius 60.1585
lwrist 3.57751
lhand -12.0143 -10.2909
lfingers 7.12502
lthumb 14.0432 19.2146
rfemur -54.9442 -8.11905 4.09575
rtibia 56.9089
rfoot -18.4652 -8.82532
rtoes -17.2482
lfemur -56.2305 -10.769 -23.6243
ltibia 50.3038
lfoot -10.4714 -11.5929
ltoes -9.14223
143
root 1.48436 16.6276 -19.1015 200.305 161.777 -169.777
lowerback 84.0601 -9.66974 12.4544
upperback 7.56561 1.1531 -3.45643
thorax -10.6232 1.281 -9.29713
lowerneck 2.43656 -7.15528 -2.49711
upperneck 4.9061 -9.31742 -2.221
head 1.11333 -4.62455 -0.300184
rclavicle -4.77083e-014 -7.15625e-015
rhumerus 68.0849 -37.3567 -100.461
rradius 5.58385
rwrist 35.5561
rhand -35.1948 6.09406
rfingers 7.12502
rthumb -8.33273 -23.7216
lclavicle -4.77083e-014 -7.15625e-015
lhumerus -30.1449 -14.1966 93.4521
lradius 60.4401
lwrist 4.03124
lhand -11.8358 -10.5812
lfingers 7.12502
lthumb 14.2152 18.9123
rfemur -55.3591 -8.32605 4.09783
rtibia 57.4295
rfoot -18.7315 -8.78273
rtoes -17.3149
lfemur -56.6415 -10.697 -23.7113
ltibia 50.6728
lfoot -10.5951 -11.8977
ltoes -9.17941
144
root 1.4698 16.6051 -19.0848 200.487 161.622 -169.663
lowerback 84.222 -9.65355 12.4624
upperback 7.56482 1.22028 -3.4346
thorax -10.5875 1.31481 -9.29767
lowerneck 2.50295 -7.18377 -2.37315
upperneck 4.85946 -9.35413 -2.28353
head 1.07856 -4.63954 -0.334014
rclavicle -7.95139e-014 1.31198e-014
rhumerus 68.3339 -37.3715 -100.53
rradius 5.67657
rwrist 34.9567
rhand -35.5483 5.69646
rfingers 7.12502
rthumb -8.67396 -24.1053
lclavicle -7.95139e-014 1.31198e-014
lhumerus -30.1613 -14.4947 93.5715
lradius 60.6948
lwrist 4.5138
lhand -11.6918 -10.7916
lfingers 7.12502
lthumb 14.354 18.6922
rfemur -55.7179 -8.5277 4.1103
rtibia 57.9364
rfoot -18.9576 -8.74428
rtoes -17.249
lfemur -56.981 -10.6271 -23.8008
ltibia 51.035
lfoot -10.7217 -12.1788
ltoes -9.1419
